<svg xmlns="http://www.w3.org/2000/svg" xmlns:xlink="http://www.w3.org/1999/xlink" width="70" zoomAndPan="magnify" viewBox="0 0 52.5 52.499999" height="70" preserveAspectRatio="xMidYMid meet" version="1.0"><defs><g/><clipPath id="2e68a86b59"><path d="M 22 12.273438 L 37.246094 12.273438 L 37.246094 33.074219 L 22 33.074219 Z M 22 12.273438 " clip-rule="nonzero"/></clipPath><clipPath id="3b22c63d8c"><path d="M 15.703125 12.273438 L 26 12.273438 L 26 18 L 15.703125 18 Z M 15.703125 12.273438 " clip-rule="nonzero"/></clipPath><clipPath id="776bcacc07"><path d="M 22 14 L 35 14 L 35 33.074219 L 22 33.074219 Z M 22 14 " clip-rule="nonzero"/></clipPath><clipPath id="8121bfbcd1"><path d="M 15.703125 12.273438 L 26 12.273438 L 26 18 L 15.703125 18 Z M 15.703125 12.273438 " clip-rule="nonzero"/></clipPath></defs><g clip-path="url(#2e68a86b59)"><path fill="#00663c" d="M 31.917969 27.035156 L 36.070312 33.257812 L 29.699219 33.257812 L 25.699219 27.261719 L 22.203125 22.015625 C 22.203125 22.015625 30.070312 22.015625 30.074219 22.015625 C 31.296875 22.015625 32.324219 20.988281 32.324219 19.765625 C 32.324219 18.527344 31.3125 17.519531 30.074219 17.519531 L 28.179688 17.519531 L 24.683594 12.273438 L 30.074219 12.273438 C 34.214844 12.273438 37.570312 15.625 37.570312 19.765625 C 37.570312 21.835938 36.730469 23.710938 35.375 25.066406 C 34.441406 26 33.195312 26.707031 31.917969 27.035156 " fill-opacity="1" fill-rule="evenodd"/></g><g clip-path="url(#3b22c63d8c)"><path fill="#ff0000" d="M 25.574219 17.519531 L 19.203125 17.519531 L 15.707031 12.273438 L 22.078125 12.273438 Z M 25.574219 17.519531 " fill-opacity="1" fill-rule="evenodd"/></g><g clip-path="url(#776bcacc07)"><path fill="#00663c" d="M 29.988281 24.804688 L 27.5625 24.804688 L 29.195312 27.261719 L 33.195312 33.257812 L 29.695312 33.257812 L 27.179688 29.476562 L 22.207031 22.011719 C 22.207031 22.011719 30.070312 22.011719 30.074219 22.011719 C 31.292969 22.011719 32.320312 20.988281 32.320312 19.769531 C 32.320312 18.527344 31.3125 17.519531 30.074219 17.519531 L 28.183594 17.519531 L 26.433594 14.894531 L 29.988281 14.894531 C 32.730469 14.894531 34.945312 17.117188 34.945312 19.851562 C 34.945312 22.585938 32.730469 24.804688 29.988281 24.804688 " fill-opacity="1" fill-rule="evenodd"/></g><g clip-path="url(#8121bfbcd1)"><path fill="#ff0000" d="M 15.707031 12.273438 L 19.203125 17.519531 L 25.574219 17.519531 L 23.828125 14.894531 L 21.171875 14.894531 C 19.128906 14.894531 17.191406 14.003906 15.863281 12.453125 Z M 15.707031 12.273438 " fill-opacity="1" fill-rule="evenodd"/></g><g fill="#3c3c3c" fill-opacity="1"><g transform="translate(14.6446, 43.359802)"><g><path d="M 0.570312 0 L 2.550781 0 L 2.550781 -2.511719 L 3.234375 -2.511719 L 5.125 0 L 7.296875 0 L 5.101562 -2.652344 L 5.257812 -2.675781 C 6.359375 -2.847656 7.132812 -3.675781 7.132812 -4.859375 C 7.132812 -6.316406 5.980469 -7.285156 4.203125 -7.285156 L 0.570312 -7.285156 Z M 2.550781 -3.765625 L 2.550781 -5.890625 L 3.828125 -5.890625 C 4.601562 -5.890625 5.164062 -5.5 5.164062 -4.828125 C 5.164062 -4.164062 4.601562 -3.765625 3.828125 -3.765625 Z M 2.550781 -3.765625 "/></g></g></g><g fill="#3c3c3c" fill-opacity="1"><g transform="translate(23.115367, 43.359802)"><g><path d="M 0.582031 0 L 2.542969 0 L 2.542969 -2.144531 L 3.859375 -2.144531 C 5.808594 -2.144531 6.949219 -3.183594 6.949219 -4.714844 C 6.949219 -6.257812 5.816406 -7.285156 3.886719 -7.285156 L 0.582031 -7.285156 Z M 2.542969 -3.542969 L 2.542969 -5.890625 L 3.632812 -5.890625 C 4.480469 -5.890625 4.96875 -5.410156 4.96875 -4.714844 C 4.96875 -4.019531 4.480469 -3.542969 3.632812 -3.542969 Z M 2.542969 -3.542969 "/></g></g></g><g fill="#3c3c3c" fill-opacity="1"><g transform="translate(31.269755, 43.359802)"><g><path d="M 3.632812 0.152344 C 5.644531 0.152344 6.992188 -0.765625 6.992188 -2.195312 C 6.992188 -3.917969 5.316406 -4.164062 4.070312 -4.347656 C 3.175781 -4.46875 2.386719 -4.582031 2.386719 -5.214844 C 2.386719 -5.695312 2.867188 -6.042969 3.621094 -6.042969 C 4.429688 -6.042969 4.96875 -5.625 4.96875 -4.917969 L 6.746094 -4.917969 C 6.734375 -6.410156 5.460938 -7.441406 3.550781 -7.441406 C 1.671875 -7.441406 0.417969 -6.492188 0.417969 -5.0625 C 0.417969 -3.234375 2.277344 -3.101562 3.53125 -2.917969 C 4.335938 -2.804688 5.019531 -2.683594 5.019531 -2.082031 C 5.019531 -1.5625 4.5 -1.246094 3.714844 -1.246094 C 2.777344 -1.246094 2.214844 -1.703125 2.214844 -2.386719 L 0.367188 -2.386719 C 0.367188 -0.898438 1.683594 0.152344 3.632812 0.152344 Z M 3.632812 0.152344 "/></g></g></g></svg>