<svg xmlns="http://www.w3.org/2000/svg" xmlns:xlink="http://www.w3.org/1999/xlink" width="200" zoomAndPan="magnify" viewBox="0 0 150 149.999998" height="200" preserveAspectRatio="xMidYMid meet" version="1.0"><defs><g/><clipPath id="6be7550019"><path d="M 64 35.394531 L 108.292969 35.394531 L 108.292969 96 L 64 96 Z M 64 35.394531 " clip-rule="nonzero"/></clipPath><clipPath id="b90192777a"><path d="M 45.292969 35.394531 L 74 35.394531 L 74 51 L 45.292969 51 Z M 45.292969 35.394531 " clip-rule="nonzero"/></clipPath><clipPath id="2f7bc38603"><path d="M 45.292969 35.394531 L 74 35.394531 L 74 51 L 45.292969 51 Z M 45.292969 35.394531 " clip-rule="nonzero"/></clipPath></defs><g clip-path="url(#6be7550019)"><path fill="#00663c" d="M 92.0625 77.980469 L 104.042969 95.933594 L 85.664062 95.933594 L 74.128906 78.636719 L 64.042969 63.503906 C 64.042969 63.503906 86.734375 63.503906 86.746094 63.503906 C 90.273438 63.503906 93.230469 60.542969 93.230469 57.015625 C 93.230469 53.4375 90.324219 50.53125 86.746094 50.53125 L 81.285156 50.53125 L 71.199219 35.394531 L 86.746094 35.394531 C 98.691406 35.394531 108.367188 45.070312 108.367188 57.015625 C 108.367188 62.984375 105.945312 68.390625 102.03125 72.304688 C 99.339844 74.992188 95.746094 77.039062 92.0625 77.980469 " fill-opacity="1" fill-rule="evenodd"/></g><g clip-path="url(#b90192777a)"><path fill="#ff0000" d="M 73.769531 50.53125 L 55.390625 50.53125 L 45.300781 35.394531 L 63.679688 35.394531 Z M 73.769531 50.53125 " fill-opacity="1" fill-rule="evenodd"/></g><path fill="#00663c" d="M 86.5 71.550781 L 79.503906 71.550781 L 84.210938 78.628906 L 95.75 95.933594 L 85.660156 95.933594 L 78.394531 85.019531 L 64.050781 63.496094 C 64.050781 63.496094 86.734375 63.496094 86.75 63.496094 C 90.265625 63.496094 93.226562 60.535156 93.226562 57.023438 C 93.226562 53.441406 90.316406 50.53125 86.75 50.53125 L 81.289062 50.53125 L 76.246094 42.964844 L 86.5 42.964844 C 94.402344 42.964844 100.792969 49.371094 100.792969 57.257812 C 100.792969 65.144531 94.402344 71.550781 86.5 71.550781 " fill-opacity="1" fill-rule="evenodd"/><g clip-path="url(#2f7bc38603)"><path fill="#ff0000" d="M 45.300781 35.394531 L 55.390625 50.53125 L 73.769531 50.53125 L 68.722656 42.964844 L 61.066406 42.964844 C 55.179688 42.964844 49.585938 40.390625 45.75 35.921875 Z M 45.300781 35.394531 " fill-opacity="1" fill-rule="evenodd"/></g><g fill="#3c3c3c" fill-opacity="1"><g transform="translate(42.240207, 125.064999)"><g><path d="M 1.648438 0 L 7.359375 0 L 7.359375 -7.242188 L 9.332031 -7.242188 L 14.777344 0 L 21.046875 0 L 14.71875 -7.652344 L 15.160156 -7.710938 C 18.339844 -8.214844 20.578125 -10.597656 20.578125 -14.011719 C 20.578125 -18.222656 17.25 -21.019531 12.128906 -21.019531 L 1.648438 -21.019531 Z M 7.359375 -10.863281 L 7.359375 -16.984375 L 11.039062 -16.984375 C 13.277344 -16.984375 14.894531 -15.867188 14.894531 -13.921875 C 14.894531 -12.011719 13.277344 -10.863281 11.039062 -10.863281 Z M 7.359375 -10.863281 "/></g></g></g><g fill="#3c3c3c" fill-opacity="1"><g transform="translate(66.672894, 125.064999)"><g><path d="M 1.679688 0 L 7.328125 0 L 7.328125 -6.183594 L 11.128906 -6.183594 C 16.75 -6.183594 20.046875 -9.183594 20.046875 -13.601562 C 20.046875 -18.042969 16.777344 -21.019531 11.214844 -21.019531 L 1.679688 -21.019531 Z M 7.328125 -10.214844 L 7.328125 -16.984375 L 10.480469 -16.984375 C 12.921875 -16.984375 14.335938 -15.601562 14.335938 -13.601562 C 14.335938 -11.597656 12.921875 -10.214844 10.480469 -10.214844 Z M 7.328125 -10.214844 "/></g></g></g><g fill="#3c3c3c" fill-opacity="1"><g transform="translate(90.193035, 125.064999)"><g><path d="M 10.480469 0.441406 C 16.277344 0.441406 20.164062 -2.207031 20.164062 -6.328125 C 20.164062 -11.304688 15.335938 -12.011719 11.746094 -12.539062 C 9.15625 -12.894531 6.886719 -13.21875 6.886719 -15.042969 C 6.886719 -16.425781 8.273438 -17.425781 10.449219 -17.425781 C 12.777344 -17.425781 14.335938 -16.21875 14.335938 -14.1875 L 19.457031 -14.1875 C 19.429688 -18.488281 15.75 -21.460938 10.242188 -21.460938 C 4.828125 -21.460938 1.207031 -18.722656 1.207031 -14.601562 C 1.207031 -9.332031 6.566406 -8.949219 10.183594 -8.417969 C 12.511719 -8.09375 14.484375 -7.742188 14.484375 -6.003906 C 14.484375 -4.503906 12.980469 -3.589844 10.714844 -3.589844 C 8.007812 -3.589844 6.386719 -4.914062 6.386719 -6.886719 L 1.058594 -6.886719 C 1.058594 -2.589844 4.855469 0.441406 10.480469 0.441406 Z M 10.480469 0.441406 "/></g></g></g></svg>